<svg xmlns="http://www.w3.org/2000/svg" viewBox="0 0 216.11 124.29"><defs><style>.cls-1{fill:#141434;}</style></defs><title>Asset 2</title><g id="Layer_2" data-name="Layer 2"><g id="Layer_1-2" data-name="Layer 1"><path class="cls-1" d="M94,40.08A12.4,12.4,0,0,0,89,38.27a19,19,0,0,0-5.36.53l-33,8.52a28.09,28.09,0,0,0-5.66,2.1c-1.75,1-2.77,2.1-3,3.27a4.57,4.57,0,0,0,.82,3.62,19.2,19.2,0,0,0,3.43,3.85A43,43,0,0,0,51.33,64c.94.55,1.24,1.15.91,1.81a4.2,4.2,0,0,1-1.72,1.7,8.86,8.86,0,0,1-2.93,1A4.56,4.56,0,0,1,44.45,68,104.82,104.82,0,0,1,34.14,61.1,110.69,110.69,0,0,0,23,53.74,92.89,92.89,0,0,0,12.1,48.37,95.75,95.75,0,0,1,.78,42.77a1.26,1.26,0,0,1-.71-1.58,3.37,3.37,0,0,1,1.42-1.75,7.7,7.7,0,0,1,2.73-1.11,5.26,5.26,0,0,1,3.23.35l3.44,1.52A73,73,0,0,0,18,42.53a30.16,30.16,0,0,0,7.58,1,63,63,0,0,0,9.5-.7A119.62,119.62,0,0,0,47.69,40.2L208.43.16a6.32,6.32,0,0,1,4.85.94c1.88,1.09,2.83,2.25,2.83,3.5Q208.22,15,199.23,26.84T181,51q-9.19,12.31-18.2,24.51T146,98.57a28.09,28.09,0,0,0-4.35,8,9.63,9.63,0,0,0-.19,5.49,9.32,9.32,0,0,0,2.52,4c1.22,1.16,2.56,2.41,4,3.73a1.21,1.21,0,0,1,.4,1.75,5.23,5.23,0,0,1-1.82,1.64,8.54,8.54,0,0,1-2.73,1,3.56,3.56,0,0,1-2.53-.29,110.41,110.41,0,0,1-11.62-7.65A123.56,123.56,0,0,0,117,108q-8.49-4.9-16.78-8.75c-5.52-2.57-10.59-5.18-15.17-7.82-.94-.55-1.27-1.17-1-1.87a4,4,0,0,1,1.82-1.87,7,7,0,0,1,2.73-.87,6.1,6.1,0,0,1,3.14.52A58.27,58.27,0,0,0,104.3,91.8a14.1,14.1,0,0,0,9.91-2,22.38,22.38,0,0,0,2.93-2,32.83,32.83,0,0,0,3.64-3.62q2.11-2.39,5.26-6.3t7.78-10.1c1.07-1.4,1.28-2.57.61-3.5a17.23,17.23,0,0,0-4.85-3.62Zm42.66,15.53a10.74,10.74,0,0,0,4.75,1.69,3.92,3.92,0,0,0,3.34-1.92L174.46,17.9c.4-.54.2-1-.61-1.51a3.36,3.36,0,0,0-2.62-.35L105.51,32.73c-2.42.62-3.64,1.25-3.64,1.87s.74,1.36,2.23,2.22Z"/></g></g></svg>