<svg xmlns="http://www.w3.org/2000/svg" viewBox="0 0 116.87 70.3"><defs><style>.cls-1{fill:#141434;}</style></defs><title>Asset 11</title><g id="Layer_2" data-name="Layer 2"><g id="Layer_1-2" data-name="Layer 1"><path class="cls-1" d="M60.56,65.8c-5.08,1.37-10.5,2.93-15.24,4.5A105.14,105.14,0,0,1,16.89,59c-24.38-14.07-21.5-32.73,3-46.9C45.66-2.8,80.36-4.07,103,9c18.45,10.65,18.45,23.94,0,34.59-1.36.78-2.71,1.56-5.59,3l-3.21.1L73.92,35C62.58,28.47,48,20.66,40.25,16.75,16.38,30.53,14.69,45,34.83,56.62c7.11,4.1,14.55,6.45,25.05,7.82ZM77,27.4c8.62,4.79,14.21,5.47,19,2.73,7.79-4.49,6.43-12.5-2.71-17.78-12.35-7.13-27.93-7.13-43.84-.29Z"/></g></g></svg>