<svg xmlns="http://www.w3.org/2000/svg" viewBox="0 0 105.97 57.26"><defs><style>.cls-1{fill:#141434;}</style></defs><title>Asset 3</title><g id="Layer_2" data-name="Layer 2"><g id="Layer_1-2" data-name="Layer 1"><path class="cls-1" d="M87.49,6.38A55.57,55.57,0,0,1,98,12.78,46.46,46.46,0,0,1,106,20.92L92.83,30.11A38,38,0,0,0,85.55,21a38.06,38.06,0,0,0-9.72-6.79,21.93,21.93,0,0,0-8-2.27,9.64,9.64,0,0,0-6.23,1.51,2.34,2.34,0,0,0-.78,2.92q.61,1.93,5.93,8.87,7.53,9.93,8.17,15.62T69.12,51q-9,6.3-21.77,6.3a59.43,59.43,0,0,1-25.69-6.17,72.08,72.08,0,0,1-13.6-8.21,39.91,39.91,0,0,1-8.06-8l13.67-9.56q7.88,11.59,17.82,16.33a29.14,29.14,0,0,0,9.74,2.88q4.65.45,7.12-1.27a3.15,3.15,0,0,0,1.53-2.41A6.9,6.9,0,0,0,49,37.51q-1-2-8.07-11-5.53-6.87-5.66-11.91t5.68-9.11Q49.18-.26,62,0A62.36,62.36,0,0,1,87.49,6.38Z"/></g></g></svg>