<svg xmlns="http://www.w3.org/2000/svg" viewBox="0 0 118.99 57.65"><defs><style>.cls-1{fill:#141434;}</style></defs><title>Asset 4</title><g id="Layer_2" data-name="Layer 2"><g id="Layer_1-2" data-name="Layer 1"><path class="cls-1" d="M14.68,28l2,.19a40.12,40.12,0,0,0,3.63,4.6A49,49,0,0,0,24.79,37a54.1,54.1,0,0,0,5,3.74,47.39,47.39,0,0,0,5.17,3,32.38,32.38,0,0,0,12.95,3.57q6.21.25,9.94-2.26,2.52-1.71,2.43-3.68a7.64,7.64,0,0,0-1.78-4.16A31.52,31.52,0,0,0,54,32.66c-1.83-1.59-3.69-3.24-5.57-4.93a66.94,66.94,0,0,1-5.2-5.18A15.22,15.22,0,0,1,40,17.18a8,8,0,0,1,.18-5.49c.72-1.84,2.44-3.68,5.18-5.54a34.4,34.4,0,0,1,11-4.7A51.74,51.74,0,0,1,70,0a71.38,71.38,0,0,1,15.15,2,74.32,74.32,0,0,1,15.58,5.69q1.92.94,4.35,2.29c1.62.9,3.26,1.86,4.92,2.9s3.28,2.13,4.86,3.25A36.33,36.33,0,0,1,119,19.54l-14.57,6L102,25.33a25.1,25.1,0,0,0-3.13-3.46,40.24,40.24,0,0,0-4-3.26q-2.15-1.55-4.33-2.88c-1.45-.89-2.8-1.63-4-2.24A31.81,31.81,0,0,0,74.09,10q-5.86-.32-9.6,2.21Q61.91,13.93,62,15.94a7.68,7.68,0,0,0,1.79,4.2,30.63,30.63,0,0,0,4.52,4.59q2.85,2.4,5.68,4.95a72.15,72.15,0,0,1,5.27,5.21,15.32,15.32,0,0,1,3.33,5.41,8.11,8.11,0,0,1-.18,5.53c-.71,1.86-2.46,3.74-5.24,5.62A34.47,34.47,0,0,1,66.06,56.2a53.29,53.29,0,0,1-13.78,1.44,71.55,71.55,0,0,1-15.18-2,72.72,72.72,0,0,1-15.33-5.56A82,82,0,0,1,9.89,42.88,64.29,64.29,0,0,1,0,34.16Z"/></g></g></svg>