<svg xmlns="http://www.w3.org/2000/svg" viewBox="0 0 128.21 92.4"><defs><style>.cls-1{fill:#141434;}</style></defs><title>Asset 7</title><g id="Layer_2" data-name="Layer 2"><g id="Layer_1-2" data-name="Layer 1"><path class="cls-1" d="M103.87,78.26q-7.44,4.29-13.8,7.27a82,82,0,0,1-13.76,4.92,57.35,57.35,0,0,1-14.67,2,54.89,54.89,0,0,1-26.23-7.09q-6.67-3.86-9.52-7.86A12.35,12.35,0,0,1,24,67.93l-8.42,4.86L0,63.82,110.53,0l15.85,9.15-39.77,23a56,56,0,0,1,16,1.25,51.71,51.71,0,0,1,13.58,5.51,30.92,30.92,0,0,1,9,7.37q3.15,4,3.07,7.73a13.67,13.67,0,0,1-3.34,8.45,40.53,40.53,0,0,1-8.45,7.9Q111.3,74,103.87,78.26ZM88,69.13a76.08,76.08,0,0,0,12.46-8.58q4.43-4,4.19-8t-6.9-7.88a28.39,28.39,0,0,0-13.8-4,37.36,37.36,0,0,0-13.86,2.4,99.5,99.5,0,0,0-14.84,7.17,75.47,75.47,0,0,0-12.45,8.59c-3,2.63-4.36,5.32-4.23,8s2.44,5.39,6.94,8a27.7,27.7,0,0,0,19.93,3.51Q75.64,76.26,88,69.13Z"/></g></g></svg>