<svg xmlns="http://www.w3.org/2000/svg" viewBox="0 0 113.17 74.3"><defs><style>.cls-1{fill:#141434;}</style></defs><title>Asset 9</title><g id="Layer_2" data-name="Layer 2"><g id="Layer_1-2" data-name="Layer 1"><path class="cls-1" d="M41,54.12l-7.8-.85q-4.54-.51-9.35-1.47a72.4,72.4,0,0,1-9.47-2.57,32.87,32.87,0,0,1-8.23-4.14,15.55,15.55,0,0,1-5.11-5.53,9,9,0,0,1-.89-6,11.92,11.92,0,0,1,3.31-5.84,25.48,25.48,0,0,1,7.62-5.14A44.78,44.78,0,0,1,22.82,19.1,49.31,49.31,0,0,1,37.22,19a70.42,70.42,0,0,1,16.7,4.5A88,88,0,0,1,72.41,33.77L76.9,37,83.08,34a16.12,16.12,0,0,0,5-3.46,7.1,7.1,0,0,0,1.94-4A6.4,6.4,0,0,0,89,22.46a15.14,15.14,0,0,0-4.16-4.09,34.44,34.44,0,0,0-5.37-3.06,67.3,67.3,0,0,0-6.75-2.69c-2.4-.8-4.89-1.52-7.48-2.13a67.92,67.92,0,0,0-7.53-1.38L57.31,8l9.84-8A113.57,113.57,0,0,1,87.4,6.78a88,88,0,0,1,13.65,7.71,43.18,43.18,0,0,1,8.86,8,13.2,13.2,0,0,1,3.25,7.5,9.67,9.67,0,0,1-2.78,6.93q-2.92,3.3-9.19,6.24L64.24,60.52a21.93,21.93,0,0,0-2.33,1.28A7.69,7.69,0,0,0,60,63.44a2.69,2.69,0,0,0-.69,1.92,3,3,0,0,0,1.54,2.06,16.05,16.05,0,0,0,2.39,1.34A22.5,22.5,0,0,0,66.64,70l-9,4.26a84.34,84.34,0,0,1-11.05-2.58A29.18,29.18,0,0,1,38.45,68a8,8,0,0,1-3.11-3.54,5,5,0,0,1,0-3.53,10.57,10.57,0,0,1,2.17-3.45A29.93,29.93,0,0,1,41,54.12Zm27-13-3.87-2.74a70.16,70.16,0,0,0-11.4-6.78,35.2,35.2,0,0,0-9.07-2.86,20.22,20.22,0,0,0-7.31.07,28,28,0,0,0-6.17,2.07A16.12,16.12,0,0,0,25.49,34a6.59,6.59,0,0,0-1.93,3.26,4.74,4.74,0,0,0,.57,3.25,9.45,9.45,0,0,0,2.86,3,23,23,0,0,0,3.49,2,30.1,30.1,0,0,0,4.82,1.68,63,63,0,0,0,6.51,1.32q3.7.59,8.7.91Z"/></g></g></svg>