<svg xmlns="http://www.w3.org/2000/svg" viewBox="0 0 178.1 83.15"><defs><style>.cls-1{fill:#141434;}</style></defs><title>Asset 10</title><g id="Layer_2" data-name="Layer 2"><g id="Layer_1-2" data-name="Layer 1"><path class="cls-1" d="M38.77,42a12.94,12.94,0,0,1-3.37-7q-.27-3.3,3.44-5.44a15.84,15.84,0,0,1,5.54-1.81,43,43,0,0,1,7.09-.43q3.81.06,8,.51c2.77.31,5.54.65,8.29,1a16.13,16.13,0,0,1-2.86-6.74,11.67,11.67,0,0,1,.69-6,15.27,15.27,0,0,1,3.65-5.29,30.11,30.11,0,0,1,6-4.43A45.09,45.09,0,0,1,89.93,1.08,70.49,70.49,0,0,1,106.51.13a76.29,76.29,0,0,1,16.41,2.76,62.64,62.64,0,0,1,14.31,5.92,41.67,41.67,0,0,1,8.19,6.07A18.92,18.92,0,0,1,150,21.2,46,46,0,0,1,158,23.36a51.55,51.55,0,0,1,8.43,3.88L178.1,34l-14.8,5.12-14.79-8.54a6.08,6.08,0,0,1-.38,1.65,10.12,10.12,0,0,1-1.41,2.64,21.93,21.93,0,0,1-7.08,6.32,40.55,40.55,0,0,1-13.49,4.65,70.25,70.25,0,0,1-15.89.83A79,79,0,0,1,94.16,44a58.6,58.6,0,0,1-14-5.68c-.87-.5-1.71-1-2.51-1.57S76,35.68,75.17,35.1c-1.19-.16-2.49-.31-3.89-.45s-2.77-.23-4.13-.24a23.27,23.27,0,0,0-3.88.26,8.64,8.64,0,0,0-3.1,1c-1.42.82-1.93,1.85-1.51,3.1s1.74,2.51,4,3.81L81.22,53.3a40.46,40.46,0,0,1,8.33,6.19,18,18,0,0,1,4.54,6.68A9,9,0,0,1,94,72.64c-.82,2.09-2.66,4-5.5,5.6a37.59,37.59,0,0,1-12.45,4.05,70.84,70.84,0,0,1-17.1.62,97.38,97.38,0,0,1-19.75-3.7,92.6,92.6,0,0,1-20.47-8.83A68.84,68.84,0,0,1,7.88,62.79a29.42,29.42,0,0,1-6.4-7.43,9.27,9.27,0,0,1-1.3-6.63q.68-3.06,4.4-5.21A21.48,21.48,0,0,1,12.42,41a61.15,61.15,0,0,1,9.36-.56q4.81.09,9.29.6T38.77,42Zm8.81,6.68q-2.47-.4-5.37-.72t-5.78-.36A33.06,33.06,0,0,0,30.9,48a13.29,13.29,0,0,0-4.58,1.53,5.5,5.5,0,0,0-2.65,2.92,5,5,0,0,0,.45,3.87,16.11,16.11,0,0,0,3.75,4.63A41.59,41.59,0,0,0,35.13,66a58.4,58.4,0,0,0,10.32,4.76,49.47,49.47,0,0,0,9.63,2.35,32.92,32.92,0,0,0,8.26.12,16.66,16.66,0,0,0,6.19-1.91,5.58,5.58,0,0,0,2.72-2.84,4.41,4.41,0,0,0-.28-3.3,10.77,10.77,0,0,0-2.82-3.49,30.81,30.81,0,0,0-4.92-3.44ZM92.71,13.93a16.9,16.9,0,0,0-5.29,4.45,8.59,8.59,0,0,0-1.86,5,8.05,8.05,0,0,0,1.62,4.95,15.88,15.88,0,0,0,5.19,4.43,28.57,28.57,0,0,0,7.33,2.92,35.33,35.33,0,0,0,8.22,1,34.91,34.91,0,0,0,8.36-.93,28.32,28.32,0,0,0,7.74-3,16.76,16.76,0,0,0,5.26-4.43A8.25,8.25,0,0,0,131,23.38a8.47,8.47,0,0,0-1.72-4.92A16.17,16.17,0,0,0,124.09,14a28.81,28.81,0,0,0-7.26-2.92,34.81,34.81,0,0,0-16.41-.18A28,28,0,0,0,92.71,13.93Z"/></g></g></svg>