<svg xmlns="http://www.w3.org/2000/svg" viewBox="0 0 802.95 474.56"><defs><style>.cls-1{fill:#141434;}</style></defs><title>Asset 12</title><g id="Layer_2" data-name="Layer 2"><g id="Layer_1-2" data-name="Layer 1"><path class="cls-1" d="M211,128l2,.19a40.12,40.12,0,0,0,3.63,4.6,50.29,50.29,0,0,0,4.45,4.3,54.24,54.24,0,0,0,5,3.74,46.47,46.47,0,0,0,5.17,3,32.34,32.34,0,0,0,12.94,3.57q6.21.26,9.94-2.26,2.54-1.71,2.43-3.68a7.54,7.54,0,0,0-1.77-4.16,31.64,31.64,0,0,0-4.43-4.58c-1.82-1.59-3.68-3.24-5.57-4.93a65.06,65.06,0,0,1-5.19-5.18,15.26,15.26,0,0,1-3.26-5.37,7.93,7.93,0,0,1,.19-5.49c.71-1.84,2.44-3.68,5.17-5.54a34.49,34.49,0,0,1,11-4.7A51.78,51.78,0,0,1,266.34,100a71.21,71.21,0,0,1,15.15,2,74.32,74.32,0,0,1,15.58,5.69q1.94.94,4.35,2.29c1.62.9,3.26,1.86,4.92,2.9s3.28,2.13,4.86,3.25a36.33,36.33,0,0,1,4.12,3.36l-14.57,6-2.44-.25a25.21,25.21,0,0,0-3.14-3.46,39.12,39.12,0,0,0-4-3.26c-1.42-1-2.87-2-4.32-2.88s-2.8-1.63-4-2.24A31.82,31.82,0,0,0,270.43,110q-5.88-.32-9.6,2.21-2.59,1.75-2.49,3.76a7.66,7.66,0,0,0,1.78,4.2,30.26,30.26,0,0,0,4.53,4.59q2.85,2.4,5.68,5a74,74,0,0,1,5.26,5.21,15,15,0,0,1,3.33,5.41,8,8,0,0,1-.17,5.53c-.72,1.86-2.46,3.74-5.24,5.62a34.53,34.53,0,0,1-11.12,4.75,52.81,52.81,0,0,1-13.78,1.44,71.55,71.55,0,0,1-15.18-2,72.64,72.64,0,0,1-15.32-5.56,81.53,81.53,0,0,1-11.89-7.18,64.76,64.76,0,0,1-9.89-8.72Z"/><path class="cls-1" d="M590.59,361l-7.8-.86q-4.54-.51-9.35-1.47a70.87,70.87,0,0,1-9.47-2.57,32.21,32.21,0,0,1-8.23-4.14,15.46,15.46,0,0,1-5.11-5.53,9,9,0,0,1-.89-6,11.89,11.89,0,0,1,3.31-5.83,25.3,25.3,0,0,1,7.62-5.14A44.78,44.78,0,0,1,572.39,326a49,49,0,0,1,14.4-.11,69.89,69.89,0,0,1,16.7,4.49A88,88,0,0,1,622,340.68l4.49,3.18,6.18-2.91a15.8,15.8,0,0,0,5-3.46,7,7,0,0,0,1.94-4,6.37,6.37,0,0,0-1.1-4.15,15,15,0,0,0-4.16-4.1,34.45,34.45,0,0,0-5.37-3,62.85,62.85,0,0,0-6.75-2.69q-3.6-1.21-7.48-2.14a67.92,67.92,0,0,0-7.53-1.38l-.36-1.14,9.84-8A115.2,115.2,0,0,1,637,313.69a88,88,0,0,1,13.65,7.71,43.19,43.19,0,0,1,8.86,8,13.14,13.14,0,0,1,3.25,7.5,9.66,9.66,0,0,1-2.78,6.92q-2.93,3.3-9.19,6.25l-37,17.39a23.88,23.88,0,0,0-2.33,1.28,7.72,7.72,0,0,0-2,1.65,2.65,2.65,0,0,0-.69,1.91,3.05,3.05,0,0,0,1.54,2.07,17,17,0,0,0,2.39,1.34,23.6,23.6,0,0,0,3.44,1.28l-9.05,4.26a84.28,84.28,0,0,1-11-2.59,28.9,28.9,0,0,1-8.09-3.77,8,8,0,0,1-3.11-3.53,5.08,5.08,0,0,1,0-3.54,10.57,10.57,0,0,1,2.17-3.45A29.88,29.88,0,0,1,590.59,361Zm27-13-3.87-2.74a70.16,70.16,0,0,0-11.4-6.78,35.26,35.26,0,0,0-9.07-2.87,20.45,20.45,0,0,0-7.31.07,28.53,28.53,0,0,0-6.17,2.07,16.32,16.32,0,0,0-4.69,3.08,6.59,6.59,0,0,0-1.93,3.26,4.73,4.73,0,0,0,.57,3.25,9.45,9.45,0,0,0,2.86,3,22.14,22.14,0,0,0,3.49,2,28.25,28.25,0,0,0,4.82,1.68,65.53,65.53,0,0,0,6.51,1.33q3.71.57,8.7.91Z"/><path class="cls-1" d="M609.68,401.55c-2.06-2.46-3.19-4.79-3.37-7s1-4,3.44-5.44a15.57,15.57,0,0,1,5.54-1.81,42.85,42.85,0,0,1,7.08-.44q3.82.06,8,.52t8.29,1a16.1,16.1,0,0,1-2.86-6.73,11.6,11.6,0,0,1,.69-6,15.44,15.44,0,0,1,3.64-5.28,29.8,29.8,0,0,1,6-4.43,44.89,44.89,0,0,1,14.75-5.26,70.61,70.61,0,0,1,16.59-1,76.31,76.31,0,0,1,16.4,2.76,63.17,63.17,0,0,1,14.32,5.92,41.33,41.33,0,0,1,8.18,6.08,18.68,18.68,0,0,1,4.61,6.32,46,46,0,0,1,8,2.16,51.46,51.46,0,0,1,8.43,3.87L749,393.57l-14.79,5.12-14.79-8.54a6.5,6.5,0,0,1-.38,1.65,10.12,10.12,0,0,1-1.41,2.64,21.84,21.84,0,0,1-7.09,6.32,40.19,40.19,0,0,1-13.48,4.64,70.27,70.27,0,0,1-15.89.84,79,79,0,0,1-16.1-2.62,58.44,58.44,0,0,1-14-5.69c-.87-.5-1.71-1-2.51-1.56s-1.62-1.11-2.44-1.69c-1.2-.16-2.49-.31-3.89-.46s-2.78-.22-4.13-.24a25.76,25.76,0,0,0-3.89.26,9,9,0,0,0-3.09,1c-1.42.82-1.93,1.86-1.52,3.1s1.75,2.52,4,3.82l18.57,10.72a40.75,40.75,0,0,1,8.33,6.2,18.1,18.1,0,0,1,4.54,6.67,9,9,0,0,1-.07,6.48c-.83,2.09-2.66,3.95-5.5,5.6A38,38,0,0,1,647,441.87a70.77,70.77,0,0,1-17.09.61,96.4,96.4,0,0,1-19.75-3.69A92.44,92.44,0,0,1,589.66,430a68.84,68.84,0,0,1-10.87-7.59,29.19,29.19,0,0,1-6.4-7.42,9.36,9.36,0,0,1-1.31-6.64q.69-3.06,4.41-5.2a21.42,21.42,0,0,1,7.84-2.54,59.91,59.91,0,0,1,9.36-.56,92.17,92.17,0,0,1,9.29.6Q606.45,401.11,609.68,401.55Zm8.81,6.67q-2.47-.39-5.37-.71c-1.93-.21-3.85-.33-5.78-.36a32.22,32.22,0,0,0-5.54.38,13.23,13.23,0,0,0-4.57,1.53,5.44,5.44,0,0,0-2.65,2.92,5,5,0,0,0,.45,3.87,15.91,15.91,0,0,0,3.75,4.63,42.14,42.14,0,0,0,7.26,5.1,59.2,59.2,0,0,0,10.32,4.77,50.14,50.14,0,0,0,9.63,2.34,31.93,31.93,0,0,0,8.25.12,16.53,16.53,0,0,0,6.2-1.91,5.49,5.49,0,0,0,2.71-2.84,4.34,4.34,0,0,0-.27-3.29,10.9,10.9,0,0,0-2.82-3.5,31.73,31.73,0,0,0-4.92-3.43Zm45.13-34.71a17.18,17.18,0,0,0-5.3,4.44,8.67,8.67,0,0,0-1.85,5,8.14,8.14,0,0,0,1.61,4.95,16,16,0,0,0,5.2,4.42,27.94,27.94,0,0,0,7.32,2.92,35,35,0,0,0,8.23,1.06,35.5,35.5,0,0,0,8.36-.94,28.32,28.32,0,0,0,7.74-3,16.74,16.74,0,0,0,5.26-4.42,8.26,8.26,0,0,0,1.75-4.91,8.43,8.43,0,0,0-1.72-4.93,16.17,16.17,0,0,0-5.23-4.44,28.16,28.16,0,0,0-7.25-2.92,34.47,34.47,0,0,0-16.41-.18A27.58,27.58,0,0,0,663.62,373.51Z"/><path class="cls-1" d="M502.52,331.16,515,336.9a1.2,1.2,0,0,0,1.16-.14c27.71-18.09,63.85-41.95,91.22-60l-14-7.44c2.19-1.44,4.53-3,6.91-4.35,8.32,3.47,29.9,10.9,31.33,11.63.36.18.38.37-.09.68C603,295.86,560.25,323.48,529.12,344l13.64,7.25c-2.19,1.45-4.69,3.1-7.06,4.46l-20.76-10.48c-6.44-3.25-13.58-6.67-19.48-9.65C497.65,334.17,500.15,332.52,502.52,331.16Z"/><path class="cls-1" d="M318.52,143q-11.38,8.81-9.69,17.11T322.9,173.8q9.69,4.17,27.52,6.37l-3.06,6.27-37.9-4.4q-21.63-8.35-25.75-21.26t10.74-24.41q14.46-11.18,37.31-13.84t40.61,5q15.08,6.5,17.82,16.15t-8.54,18.17l-17.91,1.32Zm37-11.79q-13.53-1-27.74,6.11l36.33,14q4.73-5.39,2.35-11T355.55,131.25Z"/><path class="cls-1" d="M477.52,179.21c13.06,7.54,10.34,14.78-2,20.36l44.92,4.4c13.9,8,10.34,15.76-3.39,21.34l-61.7,24.86,23.05,2.93L477,257.41l-42-4.11-5.77-10,62.72-25.44c6.61-2.64,10.17-5.87,5.76-8.42-3.9-2.25-12.54-3.52-18.81-4.2l-12.72-1.47-66.1,26.42L382.43,220l66.78-27c6.61-2.64,10-6,5.77-8.41-3.9-2.26-12.55-3.53-18.65-4.31l-13.22-1.57L357,205.34l-17.8-10.27,82.89-33.38-20-5.67,2.88-4,41.53,9.29.34,7.83-9,3.43-8,1.66Z"/><path class="cls-1" d="M545.4,299.24q-7.42,4.29-13.8,7.27a81.7,81.7,0,0,1-13.76,4.92,57.35,57.35,0,0,1-14.67,1.95,55,55,0,0,1-26.23-7.09q-6.68-3.85-9.51-7.86a12.35,12.35,0,0,1-1.94-9.52l-8.41,4.86-15.55-9L552.07,221l15.84,9.15-39.77,23a56,56,0,0,1,16,1.25,51.29,51.29,0,0,1,13.59,5.51,30.92,30.92,0,0,1,9,7.37c2.09,2.67,3.12,5.25,3.07,7.73a13.72,13.72,0,0,1-3.34,8.45,40.78,40.78,0,0,1-8.45,7.9Q552.83,295,545.4,299.24Zm-15.88-9.13A75.94,75.94,0,0,0,542,281.53q4.42-4,4.19-8t-6.9-7.88a28.39,28.39,0,0,0-13.8-4A37.43,37.43,0,0,0,511.6,264a99,99,0,0,0-14.83,7.17,76,76,0,0,0-12.46,8.59c-2.95,2.63-4.36,5.32-4.23,8s2.44,5.39,6.94,8A27.71,27.71,0,0,0,507,299.34Q517.18,297.24,529.52,290.11Z"/><path class="cls-1" d="M251.84,64a54.75,54.75,0,0,1,10.55,6.4,46.44,46.44,0,0,1,7.94,8.13l-13.14,9.19a40.93,40.93,0,0,0-17-16,21.8,21.8,0,0,0-8-2.26,9.55,9.55,0,0,0-6.22,1.5,2.33,2.33,0,0,0-.78,2.92q.62,1.95,5.93,8.87,7.52,9.94,8.16,15.62t-5.75,10.16q-9,6.3-21.77,6.29A59.26,59.26,0,0,1,186,108.74a71.66,71.66,0,0,1-13.61-8.2,40.34,40.34,0,0,1-8-8L178,83q7.88,11.61,17.81,16.34a29.21,29.21,0,0,0,9.74,2.88q4.65.45,7.12-1.28a3.13,3.13,0,0,0,1.54-2.4,7.07,7.07,0,0,0-.93-3.35q-1-2-8.07-11-5.52-6.87-5.65-11.91t5.67-9.1q8.27-5.79,21.05-5.5A62.12,62.12,0,0,1,251.84,64Z"/><path class="cls-1" d="M94,40.08A12.4,12.4,0,0,0,89,38.27a19,19,0,0,0-5.36.53l-33,8.52a28.09,28.09,0,0,0-5.66,2.1c-1.75,1-2.77,2.1-3,3.27a4.57,4.57,0,0,0,.82,3.62,19.2,19.2,0,0,0,3.43,3.85A43,43,0,0,0,51.33,64c.94.55,1.24,1.15.91,1.81a4.2,4.2,0,0,1-1.72,1.7,8.86,8.86,0,0,1-2.93,1A4.56,4.56,0,0,1,44.45,68,104.82,104.82,0,0,1,34.14,61.1,110.69,110.69,0,0,0,23,53.74,92.89,92.89,0,0,0,12.1,48.37,95.75,95.75,0,0,1,.78,42.77a1.26,1.26,0,0,1-.71-1.58,3.37,3.37,0,0,1,1.42-1.75,7.7,7.7,0,0,1,2.73-1.11,5.26,5.26,0,0,1,3.23.35l3.44,1.52A73,73,0,0,0,18,42.53a30.16,30.16,0,0,0,7.58,1,63,63,0,0,0,9.5-.7A119.62,119.62,0,0,0,47.69,40.2L208.43.16a6.32,6.32,0,0,1,4.85.94c1.88,1.09,2.83,2.25,2.83,3.5Q208.22,15,199.23,26.84T181,51q-9.19,12.31-18.2,24.51T146,98.57a28.09,28.09,0,0,0-4.35,8,9.63,9.63,0,0,0-.19,5.49,9.32,9.32,0,0,0,2.52,4c1.22,1.16,2.56,2.41,4,3.73a1.21,1.21,0,0,1,.4,1.75,5.23,5.23,0,0,1-1.82,1.64,8.54,8.54,0,0,1-2.73,1,3.56,3.56,0,0,1-2.53-.29,110.41,110.41,0,0,1-11.62-7.65A123.56,123.56,0,0,0,117,108q-8.49-4.9-16.78-8.75c-5.52-2.57-10.59-5.18-15.17-7.82-.94-.55-1.27-1.17-1-1.87a4,4,0,0,1,1.82-1.87,7,7,0,0,1,2.73-.87,6.1,6.1,0,0,1,3.14.52A58.27,58.27,0,0,0,104.3,91.8a14.1,14.1,0,0,0,9.91-2,22.38,22.38,0,0,0,2.93-2,32.83,32.83,0,0,0,3.64-3.62q2.11-2.39,5.26-6.3t7.78-10.1c1.07-1.4,1.28-2.57.61-3.5a17.23,17.23,0,0,0-4.85-3.62Zm42.66,15.53a10.74,10.74,0,0,0,4.75,1.69,3.92,3.92,0,0,0,3.34-1.92L174.46,17.9c.4-.54.2-1-.61-1.51a3.36,3.36,0,0,0-2.62-.35L105.51,32.73c-2.42.62-3.64,1.25-3.64,1.87s.74,1.36,2.23,2.22Z"/><path class="cls-1" d="M746.63,470.06c-5.08,1.37-10.49,2.93-15.23,4.5A105.4,105.4,0,0,1,703,463.22c-24.37-14.07-21.49-32.74,3-46.91,25.73-14.85,60.42-16.12,83.1-3,18.45,10.66,18.45,24,0,34.6-1.35.78-2.7,1.56-5.58,3l-3.22.1L760,439.28c-11.34-6.55-25.9-14.37-33.68-18.28-23.86,13.78-25.56,28.24-5.42,39.87,7.11,4.11,14.56,6.45,25.05,7.82Zm16.42-38.4c8.63,4.78,14.21,5.47,19,2.73,7.78-4.49,6.42-12.51-2.71-17.78-12.36-7.14-27.93-7.14-43.84-.3Z"/></g></g></svg>